<svg xmlns="http://www.w3.org/2000/svg" xmlns:xlink="http://www.w3.org/1999/xlink" version="1.1" id="Ebene_1" x="0px" y="0px" viewBox="0 0 283.5 140.2" style="enable-background:new 0 0 283.5 140.2;" xml:space="preserve">
<style type="text/css">
	.st0{fill:#FFFFFF;}
	.st1{fill-rule:evenodd;clip-rule:evenodd;fill:#D7AC1D;}
</style>
<polygon class="st0" points="54,88.8 233.4,89 233.4,68.8 227.7,62.2 213.6,61.7 212,63.3 157.3,63.1 153.9,58.6 146.6,57.4   134.1,58.1 130.5,64.4 77.2,63.1 75.9,62.2 71.3,60.6 61.1,61.7 55.4,68.8 "/>
<g>
	<path class="st0" d="M275.6,102.2v1.2c2.2,0,2.7,0.4,2.7,3.1v0.1v10v4.2l-2.3-4.2l-5.5-10l-2.5-4.5h-7.2v1.2c2.2,0,2.7,0.4,2.7,3.1   v0.1v10v5v0.2c0,2.7-0.4,3.1-2.7,3.1v1.2h8V125h-0.2c-2.3,0-2.7-0.4-2.7-3.1v-0.2v-5v-10v-0.2l0.1,0.2l5.5,10l2.8,5l2.5,4.6h4v-4.6   v-5v-10v-0.1c0-2.7,0.4-3.1,2.7-3.1v-1.2H275.6z"/>
	<path class="st0" d="M243.8,56.9l-0.5-0.5L263.4,37l0.5,0.5L243.8,56.9L243.8,56.9z M206.5,36.9l-0.6-0.3l12.2-25.1l0.6,0.3   L206.5,36.9L206.5,36.9z M166,27.7l-0.7-0.1L169.3,0l0.7,0.1L166,27.7L166,27.7z M43.5,56.9l0.5-0.5L23.9,37l-0.5,0.5L43.5,56.9   L43.5,56.9z M80.9,36.9l0.6-0.3L69.2,11.5l-0.6,0.3L80.9,36.9L80.9,36.9z M121.3,27.7l0.7-0.1L118.1,0l-0.7,0.1L121.3,27.7   L121.3,27.7z"/>
	<path class="st0" d="M185.7,18.1l-2.1,8.9c-0.4,1.6-0.2,1.9,1.2,2.2l-0.2,0.7l-4.9-1.1L180,28c1.5,0.3,1.8,0.1,2.2-1.4l2-8.8   c0.4-1.6,0.1-1.9-1.2-2.2l0.2-0.7l4.4,1l3.8,12.3l1.9-8.3c0.4-1.6,0.1-1.9-1.2-2.2l0.1-0.7l5,1.1l-0.2,0.7   c-1.5-0.3-1.8-0.1-2.2,1.4l-2.6,11.4l-2.4-0.6L185.7,18.1L185.7,18.1z"/>
	<path class="st0" d="M49.1,35.6c0.3-1.3,1.2-2.4,3-3.5c1.7-1,3.2-1.6,4.2-1.8l2,2.9l-0.7,0.4c-0.9-0.8-2.4-2-4.8-0.5   c-1.1,0.6-1.5,1.5-1.5,2.5l0,0c0,1.4,0.8,3.1,1.7,4.5c1.9,3.2,4,4.8,6.9,3.1c0.5-0.3,1-0.8,1.4-1.2L59,38.4   c-0.8-1.4-1.2-1.5-2.3-0.8l-0.5-0.6l2.4-1.4l2.7-1.6l0.4,0.6c-0.6,0.4-0.9,0.6-1,1c-0.1,0.4,0.1,0.8,0.5,1.5l2.5,4.1   c-0.2,0.3-0.5,0.5-0.7,0.8c-0.2,0.3-0.5,0.5-0.8,0.8c-0.6,0.6-1.4,1.2-2.6,1.9c-4.2,2.5-7.3-0.4-9-3.2   C49.3,39.4,48.6,37.4,49.1,35.6z"/>
	<path class="st0" d="M103.2,29.8l3.3-0.8l-0.3-0.7c-1,0.2-1.4-0.2-2.4-1.3l-3.4-3.7c1.5-0.7,2.8-1.7,2.2-4.3   c-0.7-2.8-3.7-2.9-6.2-2.3l-5.3,1.2l0.1,0.7c1.4-0.3,1.7-0.1,2.1,1.4l2,8.8c0.4,1.6,0.2,1.9-1.3,2.2l0.2,0.7l5.9-1.4l-0.3-0.7   c-1.4,0.3-1.7,0.1-2.1-1.4L97,24.5l1.1-0.3L103.2,29.8z M96.7,23.3l-0.9-3.9c-0.3-1.1-0.2-1.4,0.9-1.7c1.6-0.4,3-0.1,3.4,2   c0.4,1.8-0.5,2.8-2.3,3.2L96.7,23.3z"/>
	<path class="st0" d="M149.5,23.1l-4.1-11.7h-2.2l-4.1,11.4c-0.6,1.7-1.1,2.2-2.5,2.2v0.7h5.1l0-0.7c-1.1,0-1.5-0.2-1.5-0.7   c0-0.3,0.1-0.5,0.2-0.8l0.7-2.1h5.1l0.8,2.2c0.1,0.2,0.2,0.5,0.2,0.7c0,0.3-0.1,0.4-0.4,0.5c-0.3,0.1-0.6,0.1-1.1,0.1v0.7h6.2   l0-0.7C150.5,25,150,24.6,149.5,23.1z M141.6,20.2l2.1-6l2.1,6H141.6z"/>
	<path class="st0" d="M240.6,35.6c-0.7-1-1.8-1.7-3-2.5l-4.7-2.8l-0.4,0.6c1.2,0.7,1.3,1.1,0.5,2.5l-1.2,2.1l-3.3,5.7   c-0.8,1.4-1.2,1.5-2.5,0.7l-0.4,0.6l4.8,2.8c3.6,2.1,6.6,2.6,9.6-2.7C242,39.4,241.8,37.3,240.6,35.6z M237.7,41.4   c-2.1,3.6-3.7,4.8-6.7,3c-1-0.6-0.9-1-0.4-1.9l4-7l0.5-0.9c0.6-1.1,0.9-1.1,1.8-0.6c0.8,0.5,1.4,1,1.8,1.5   C239.9,37.1,239.2,38.9,237.7,41.4z"/>
	<g>
		<path class="st0" d="M5.4,106.7c0.3-1.9,1-3.7,2.1-5c1.1-1.3,2.6-2.1,4.8-2.1c2.1,0,3.8,0.9,5,2.1c1.3,1.3,2,3.1,2.1,4.2h1.2    l-0.2-4.2l-0.1-2.9c-1.9-0.6-4.7-1.3-8.5-1.3c-4.7,0-7.7,1.6-9.5,4.1c-1,1.4-1.6,3.1-1.9,5v0c-0.3,1.5-0.4,3.1-0.4,4.9    c0,1.9,0.1,3.6,0.4,5.1c0.3,1.9,0.9,3.6,1.7,5v0c1.9,3.2,5.2,5,10.4,5c4.4,0,7.1-2,8.1-2.8v-2.2v-1.4c-0.3,0.3-0.8,0.8-1.6,1.4h0    c-1.5,1.1-3.7,2.5-6.3,2.5c-2.3,0-4.1-0.9-5.3-2.5v0c-1-1.3-1.7-3-2.1-5c-0.3-1.6-0.5-3.3-0.5-5.1C5,110,5.1,108.3,5.4,106.7    L5.4,106.7z"/>
	</g>
	<path class="st0" d="M44,121.8l-0.1-0.2l-1.7-5l-3.4-10l-1.5-4.5h-3.5l-1.6,4.5l-3.5,10l-1.6,4.7c0,0.1-0.1,0.2-0.1,0.3h0   c-1,2.7-1.8,3.3-3.9,3.3v1.2h8.2V125c-1.8,0-2.3-0.3-2.3-1.2c0-0.4,0.1-0.9,0.3-1.3l0.3-0.8l0.9-2.7h8.3l0.9,2.7l0.3,1   c0.2,0.4,0.3,0.9,0.3,1.3c0,1.1-1.6,1.1-2.3,1.1v1.2h9.8V125C45.6,125,44.9,124.4,44,121.8z M31.2,117l0.1-0.3l3.4-9.7l3.3,9.7   l0.1,0.3H31.2z"/>
	<g>
		<path class="st0" d="M51.7,106.7c-0.1,0.4-0.1,0.9-0.1,1.4c0,2.9,1.8,4.7,4,6.1c1.4,0.9,3,1.7,4.3,2.5h0c0.2,0.1,0.4,0.3,0.6,0.4    c1.4,1,2.4,2.1,2.4,3.8c0,0.3,0,0.5-0.1,0.8c-0.4,1.7-1.9,2.9-4.6,2.9c-2.8,0-4.2-1.1-5-2.9h0c-0.3-0.7-0.5-1.4-0.7-2.2h-1.4    l0.1,2.2l0.1,3.9c2.1,0.6,4.3,1,6.5,1c4.6,0,8.2-1.4,9.2-4.9v0c0.2-0.6,0.3-1.3,0.3-2.1c0-1.1-0.3-2.1-0.7-2.9v0    c-0.5-1-1.4-1.8-2.3-2.6c-0.7-0.5-1.6-1-2.5-1.5c-2-1.1-6.1-2.9-6.1-5.5c0-0.1,0-0.2,0-0.3l0,0c0.2-1.6,1.6-2.8,4.3-2.8    c2.4,0,3.8,1,4.4,2.8h0c0.2,0.5,0.3,1.1,0.4,1.7h1.4l-0.1-1.7l-0.2-4.2c-2.1-0.3-3.8-0.7-6-0.7C55.3,101.9,52.4,103.6,51.7,106.7    L51.7,106.7z"/>
	</g>
	<path class="st0" d="M78.8,116.7v-10v-0.1c0-2.7,0.5-3.1,2.8-3.1v-1.2h-9.6v1.2c2.4,0,2.8,0.4,2.8,3.1v0.1v10v5v0.2   c0,2.7-0.4,3.1-2.8,3.1v1.2h9.6V125c-2.4,0-2.8-0.4-2.8-3.1v-0.2V116.7z"/>
	<path class="st0" d="M102.5,102.2v1.2c2.2,0,2.7,0.4,2.7,3.1v0.1v10v4.2l-2.3-4.2l-5.5-10l-2.5-4.5h-7.2v1.2c2.2,0,2.7,0.4,2.7,3.1   v0.1v10v5v0.2c0,2.7-0.4,3.1-2.7,3.1v1.2h8V125h-0.2c-2.3,0-2.7-0.4-2.7-3.1v-0.2v-5v-10v-0.2l0.1,0.2l5.5,10l2.8,5l2.5,4.6h4v-4.6   v-5v-10v-0.1c0-2.7,0.4-3.1,2.7-3.1v-1.2H102.5z"/>
	<path class="st0" d="M130.5,106.7c-1.4-3.1-4-4.8-8.6-4.8c-4.6,0-7.2,1.8-8.6,4.8c-0.9,2-1.3,4.5-1.3,7.5c0,0.9,0,1.7,0.1,2.4h0   c0.2,1.9,0.5,3.6,1.1,5c1.4,3.1,4,4.9,8.7,4.9c4.6,0,7.3-1.8,8.7-4.9v0c0.6-1.4,1-3.1,1.1-5v0c0.1-0.8,0.1-1.6,0.1-2.4   C131.7,111.2,131.4,108.7,130.5,106.7z M127.5,116.7L127.5,116.7c-0.1,1.9-0.4,3.6-1,5c-0.8,1.7-2.2,2.8-4.3,2.9   c-2.3,0.1-3.7-1-4.6-2.9h0c-0.7-1.3-1-3.1-1.2-5c-0.1-0.7-0.1-1.5-0.1-2.2c-0.1-3,0.1-5.8,1.1-7.7h0c0.8-1.7,2.1-2.7,4.2-2.8   c2.2-0.1,3.7,1,4.6,2.8h0c1,1.9,1.4,4.5,1.5,7.3C127.6,114.9,127.6,115.8,127.5,116.7z"/>
	<g>
		<path class="st0" d="M153.7,121.7c0-0.2,0-0.4,0-0.6v-4.4v-10v-3.9c0-0.4,0-0.8,0-1.1l0,0c0.2-2.4,1-2.8,3.6-2.8v-1.2h-11.9v1.2    c2.6,0,3.4,0.5,3.6,2.8v0c0,0.3,0,0.7,0,1.1v3.9v10v4.4c0,0.2,0,0.4,0,0.6c-0.1,2.8-0.8,3.3-3.6,3.3v1.2h20.5l0.2-4.6l0.1-2.3    h-1.2c-0.2,0.9-0.4,1.7-0.7,2.3c-0.8,1.7-2.1,2.4-4.6,2.4h-3.1C154.3,124.1,153.8,123.6,153.7,121.7L153.7,121.7z"/>
	</g>
	<g>
		<path class="st0" d="M169.9,121.6c0.8,3.2,3.1,4.9,8,4.9c5.4,0,7.4-2.2,8.1-4.9h0c0.2-1,0.3-2.1,0.3-3.2v-1.8v-10v-0.1    c0-2.7,0.5-3.1,2.8-3.1v-1.2h-8.3v1.2c2.4,0,2.8,0.4,2.8,3.1v0.1v10v1.8c0,1.3-0.1,2.3-0.4,3.2h0c-0.6,2.1-2.1,2.9-5,2.9    c-2.8,0-4.1-1.1-4.6-2.9c-0.3-0.9-0.3-2-0.3-3.2v-1.8v-10v-0.1c0-2.7,0.5-3.1,2.8-3.1v-1.2h-9.6v1.2c2.4,0,2.8,0.4,2.8,3.1v0.1v10    v1.8C169.5,119.6,169.6,120.7,169.9,121.6L169.9,121.6z"/>
	</g>
	<path class="st0" d="M207.9,120.2c-0.1,0.6-0.1,1-0.2,1.5l0,0c-0.5,2.1-1.6,2.6-4.6,2.6h-6.2l1.5-2.6l3-5l6-10l1.4-2.4v-2.1h-15.5   l-0.2,4.5l-0.1,1.6h1.4c0.1-0.6,0.2-1.1,0.3-1.6h0c0.5-2,1.6-2.5,4.5-2.5h4.9l-1.5,2.5l-6,10l-3,5l-1.4,2.3v2.3H209l0.2-4.6   l0.1-1.5H207.9z"/>
	<g>
		<path class="st0" d="M227.6,116.7c0,0.2,0,0.5,0,0.7v0.2h1.3v-0.9v-6.8h-1.3v0.2c0,2.3-0.3,2.7-2.5,2.7h-4.5v-6v-0.1    c0-1.9,0.3-2.4,2-2.4h2.3c2.7,0,3.9,0.5,4.3,2.5c0.1,0.3,0.1,0.6,0.1,1h1.4l0-1l-0.2-4.5h-16.6v1.2c2.4,0,2.8,0.4,2.8,3.1v0.1v10    v5v0.2c0,2.7-0.5,3.1-2.8,3.1v1.2H231l0.2-4.6l0-0.9h-1.4c0,0.3-0.1,0.7-0.1,0.9c-0.4,1.9-1.6,2.6-3.9,2.6h-3.3    c-1.7,0-2-0.1-2-2.4v-0.2v-5v-2h4.5C227,114.7,227.5,115.2,227.6,116.7L227.6,116.7z"/>
	</g>
	<path class="st0" d="M255.6,124.4c-0.6-0.6-1.2-1.6-1.6-2.4l-0.1-0.3l-2.8-5l-1.2-2c2.8-0.6,4.9-1.8,4.9-6.3c0-0.6-0.1-1.2-0.2-1.7   c-0.9-3.5-5-4.5-8.7-4.5H237v1.2c2.4,0,2.8,0.4,2.8,3.1v0.1v10v5v0.2c0,2.7-0.4,3.1-2.8,3.1v1.2h9.7V125c-2.4,0-2.8-0.4-2.8-3.1   v-0.2v-5v-1.5h1.9l0.8,1.5l2.8,5l2.6,4.6h5.5V125C256.7,125,256.1,124.8,255.6,124.4z M245.9,113.3h-2v-6.5v-0.1   c0-2,0.2-2.4,2.1-2.4c2.1,0,3.9,0.6,4.5,2.5v0c0.2,0.6,0.3,1.3,0.3,2.1C250.8,112,249,113.3,245.9,113.3z"/>
</g>
<g>
	<polygon class="st1" points="267.9,138.9 267.9,140.2 19.7,140.2 19.7,138.9 267.9,138.9  "/>
	<g>
		<polygon class="st1" points="89.7,72.2 88.3,72.2 88.1,82.7 88,89 89.9,89 89.8,82.7   "/>
		<polygon class="st1" points="99.4,72.2 98,72.2 97.9,82.7 97.8,89 99.7,89 99.6,82.7   "/>
		<polygon class="st1" points="109.2,72.2 107.8,72.2 107.6,82.7 107.5,89 109.4,89 109.3,82.7   "/>
		<polygon class="st1" points="118.9,72.2 117.5,72.2 117.4,82.7 117.3,89 119.2,89 119.1,82.7   "/>
		<polygon class="st1" points="61.8,78.6 63.6,78.6 63.6,74.9 66.2,74.4 66.2,73.7 61.8,73.7   "/>
		<polygon class="st1" points="61.8,82.7 61.8,89 63.6,89 63.6,82.7 63.6,82.7 66.2,82.2 66.2,81.5 61.8,81.5   "/>
		<polygon class="st1" points="71.2,78.6 72.9,78.6 72.9,74.9 75.5,74.4 75.5,73.7 71.2,73.7   "/>
		<polygon class="st1" points="64.5,65.6 64.5,68.3 66.3,69.4 66.3,65.6 71.2,65.7 68,63   "/>
		<polygon class="st1" points="71.2,82.7 71.2,89 72.9,89 72.9,82.7 72.9,82.7 75.5,82.2 75.5,81.5 71.2,81.5   "/>
		<polygon class="st1" points="134.4,73.6 134.4,74.5 135.1,74.7 135.1,82.7 135.1,89 137,89 136.9,82.7 136.8,74.6 137.9,74.6     137.9,77.1 141.5,77.1 141.4,82.7 141.3,89 143,89 143,82.7 142.8,74.6 143.9,74.6 143.9,77.1 147.6,77.1 147.5,82.7 147.4,89     149.2,89 149.1,82.7 148.9,74.6 150,74.6 150,77.1 153.8,77.1 153.7,82.7 153.5,89 155.1,89 155.1,82.7 155.1,74.6 155.8,74.4     155.8,73.6 135.1,73.5   "/>
		<polygon class="st1" points="223.4,82.7 223.4,89 225.1,89 225.1,82.7 225.1,82.7 227.7,82.2 227.7,81.5 223.4,81.5   "/>
		<polygon class="st1" points="214,78.6 215.8,78.6 215.8,74.9 218.3,74.4 218.3,73.7 214,73.7   "/>
		<polygon class="st1" points="223.4,78.6 225.1,78.6 225.1,74.9 227.7,74.4 227.7,73.7 223.4,73.7   "/>
		<polygon class="st1" points="169.8,72.2 168.4,72.2 168.2,82.7 168.2,89 170,89 170,82.7   "/>
		<polygon class="st1" points="214,82.7 214,89 215.8,89 215.8,82.7 215.8,82.7 218.3,82.2 218.3,81.5 214,81.5   "/>
		<polygon class="st1" points="199,72.2 197.6,72.2 197.5,82.7 197.4,89 199.3,89 199.2,82.7   "/>
		<polygon class="st1" points="179.5,72.2 178.2,72.2 178,82.7 177.9,89 179.8,89 179.7,82.7   "/>
		<polygon class="st1" points="189.3,72.2 187.9,72.2 187.7,82.7 187.6,89 189.5,89 189.5,82.7   "/>
		<g>
			<path class="st1" d="M233.9,87.7v-5V71.5h1.8v-2.2l-1.8,0v-1.7h-1.3l-3.6-5.5l-8.7-6l-9.3,5.9h-53.6l-2.3-3.6l-11.4-8.2L132,58.6     l-2,3.6H76.7l-8.6-5.9l-9.4,6l-4.9,7.1h-1.6v2.2h1.4v11.2v5h-34v1.2h36.9v-1.2v-5V71.5h24.1v11.2v6.3h1.3v-6.3V71.5h1.6v-2.2h1.8     L83,68.2l2.6-2.1l2.8,2v1.3h5.9l-2.2-1.3l2.6-2l2.8,2v1.3h5.9l-2.2-1.2l2.6-2.1l2.8,2v1.3h5.9l-2.2-1.3l2.6-2l2.8,2v1.3h6     l-2.3-1.3l2.6-2l2.8,2l0,1.2v2.2h1.9v11.2v6.3h3.4v-6.3V71.5h30.3v11.2v6.3h1.3v-6.3V71.5h1.4v-2.1h2.4l-2.3-1.2l2.6-2.1l2.8,2     v1.3h5.9l-2.2-1.3l2.6-2l2.8,2v1.3h5.9l-2.2-1.2l2.6-2.1l2.8,2v1.3h5.9l-2.2-1.3l2.6-2l2.8,2v1.3h6l-2.3-1.3l2.6-2l2.8,2l0,1.2     v2.2h1.5v11.2v6.3h2.9v-6.3V71.5h23.7v11.2v5v1.2h35.2v-1.2H233.9z M80.8,69.3l-7.4,0l-2.2-3.7v3.7l-4.9,0l-9.2,0v-1.6h1.3     l3.6-5.5l13.8,0l3.6,5.5h1.3V69.3z M153.2,69.3c-1.1-0.6-2.7-1.7-2.5-3.1c0.9-0.5,0.6-2,0.4-2.4h-1.3v5.5h-6.5v-4l5.6-1v-0.6     h-8.1v5.5H140v-5.5h-1.3c-0.1,0.5-0.4,1.9,0.4,2.4c0.2,1.4-1.4,2.5-2.5,3.1h-6.4l5.8-10.7h17.7l6.3,10.7H153.2z M225.5,69.3     l-2.2-3.7v3.7l-4.7,0v-3.7l4.7,0l-3.1-2.6l-3.5,2.5v2.8l1.8,1.1l-9,0v-1.7h1.1l3.6-5.5h13.4l4.6,7.1L225.5,69.3z"/>
			<polygon class="st1" points="137.7,62.9 152.2,62.9 145,60.3    "/>
		</g>
	</g>
</g>
</svg>